<svg width="24" height="24" viewBox="0 0 24 24" fill="none" xmlns="http://www.w3.org/2000/svg">
<g id="Fermer">
<g id="Vector">
<path fill-rule="evenodd" clip-rule="evenodd" d="M20 3.5H4C3.72386 3.5 3.5 3.72386 3.5 4V20C3.5 20.2761 3.72386 20.5 4 20.5H20C20.2761 20.5 20.5 20.2761 20.5 20V4C20.5 3.72386 20.2761 3.5 20 3.5ZM4 2C2.89543 2 2 2.89543 2 4V20C2 21.1046 2.89543 22 4 22H20C21.1046 22 22 21.1046 22 20V4C22 2.89543 21.1046 2 20 2H4Z" fill="#142D5E"/>
<path d="M15.0641 7.59619C15.4872 7.17313 16.1731 7.17313 16.5962 7.59619C17.0193 8.01926 17.0193 8.70519 16.5962 9.12826L8.93587 16.7886C8.5128 17.2117 7.82687 17.2117 7.40381 16.7886C6.98074 16.3655 6.98074 15.6796 7.40381 15.2565L15.0641 7.59619Z" fill="#142D5E"/>
<path d="M16.5962 15.2565C17.0193 15.6796 17.0193 16.3655 16.5962 16.7886C16.1731 17.2117 15.4872 17.2117 15.0641 16.7886L7.40381 9.12826C6.98074 8.70519 6.98074 8.01926 7.40381 7.59619C7.82687 7.17313 8.5128 7.17313 8.93587 7.59619L16.5962 15.2565Z" fill="#142D5E"/>
</g>
</g>
</svg>
