<svg width="24" height="24" viewBox="0 0 24 24" fill="none" xmlns="http://www.w3.org/2000/svg">
<g id="Email">
<path id="Vector" d="M14.3889 12.5C14.3889 14.0955 13.0955 15.3889 11.5 15.3889C9.90451 15.3889 8.61111 14.0955 8.61111 12.5C8.61111 10.9045 9.90451 9.61111 11.5 9.61111C13.0955 9.61111 14.3889 10.9045 14.3889 12.5ZM14.3889 12.5V13.5833C14.3889 14.5805 15.1973 15.3889 16.1944 15.3889C17.1916 15.3889 18 14.5805 18 13.5833V12.5C18 8.91015 15.0899 6 11.5 6C7.91015 6 5 8.91015 5 12.5C5 16.0899 7.91015 19 11.5 19H14.3889" stroke="white" stroke-width="1.6" stroke-linecap="round" stroke-linejoin="round"/>
</g>
</svg>
