<svg width="24" height="24" viewBox="0 0 24 24" fill="none" xmlns="http://www.w3.org/2000/svg">
<g id="Telephone">
<g id="Union">
<path d="M9.53354 17.8235C9.53354 17.3817 9.89171 17.0235 10.3335 17.0235H13.6669C14.1087 17.0235 14.4669 17.3817 14.4669 17.8235C14.4669 18.2654 14.1087 18.6235 13.6669 18.6235H10.3335C9.89171 18.6235 9.53354 18.2654 9.53354 17.8235Z" fill="white"/>
<path fill-rule="evenodd" clip-rule="evenodd" d="M15.5716 2.20001C16.7754 2.20001 17.8002 3.15788 17.8002 4.38463V19.6154C17.8002 20.8421 16.7754 21.8 15.5716 21.8H8.42877C7.22498 21.8 6.2002 20.8421 6.2002 19.6154V4.38463C6.2002 3.15788 7.22498 2.20001 8.42877 2.20001H15.5716ZM7.8002 4.38463C7.8002 4.0883 8.06113 3.80001 8.42877 3.80001H9.53354V3.91766C9.53354 4.83391 10.146 5.91766 11.278 5.91766H12.7224C13.8544 5.91766 14.4669 4.83391 14.4669 3.91766V3.80001H15.5716C15.9393 3.80001 16.2002 4.0883 16.2002 4.38463V19.6154C16.2002 19.9117 15.9393 20.2 15.5716 20.2H8.42877C8.06113 20.2 7.8002 19.9117 7.8002 19.6154V4.38463ZM11.1335 3.80001H12.8669V3.91766C12.8669 4.08422 12.8131 4.20651 12.7618 4.27171C12.7386 4.3012 12.722 4.31324 12.7138 4.31766H11.2866C11.2784 4.31324 11.2618 4.3012 11.2386 4.27171C11.1873 4.20651 11.1335 4.08422 11.1335 3.91766V3.80001Z" fill="white"/>
</g>
</g>
</svg>
